<svg width="20" height="20" viewBox="0 0 20 20" fill="none" xmlns="http://www.w3.org/2000/svg">
<path d="M0 0C21.3214 0 16.3661 14.1652 16.3884 16.3527L20 20H18.8393L15.6964 16.8214C13.9554 17.0089 10.1429 18.3616 6.125 15.1696C2.09821 11.9777 2.32143 8.15625 0 0ZM3.55804 2.05357C1.33929 1.00446 3.32589 2.46429 3.32589 2.46429C5.34375 3.85714 6.27232 5.75446 7.35268 7.81696C8.75893 10.5045 10.8795 14.0536 13.7902 15.3036C16.692 16.5536 15.317 15.8616 14.058 14.9241C12.7991 13.9777 11.0134 11.0402 9.99554 9.11161C8.58036 6.43304 7.27232 3.81696 3.55804 2.05357Z" fill="#1CB358"/>
</svg>
