<svg width="20" height="20" viewBox="0 0 20 20" fill="none" xmlns="http://www.w3.org/2000/svg">
<path d="M20 12.3121C17.1299 17.8814 10.2543 14.5121 10.2543 14.5121C8.1447 17.8448 4.65999 19.9878 0.63877 20C-0.199852 20 -0.225896 19.0059 0.63877 19.0059C3.99326 18.9937 6.91541 17.2662 8.82705 14.5203C6.68622 15.1681 2.64938 15.657 0.409582 11.1713C6.08721 9.34203 8.69683 11.6276 9.69693 13.0251C10.2126 12.031 10.5824 10.9513 10.822 9.77796C10.822 9.77796 3.5453 10.6702 3.03483 5.78122C9.23855 3.8297 10.9835 8.90609 10.9835 8.90609C11.0669 8.22571 11.1554 6.76309 11.1554 6.73049C11.1554 6.73049 5.61841 3.72785 9.17084 0C15.661 1.75188 12.3691 6.61642 12.3691 6.61642C12.3951 6.6816 12.3951 7.58607 12.3691 7.97718C12.3691 7.97718 14.7235 4.35119 19.4739 5.63455C19.2551 11.0939 12.0826 9.96944 12.0826 9.96944C11.8534 11.0858 11.4992 12.145 11.0408 13.1269C11.0408 13.1269 15.3641 9.38684 20 12.3121Z" fill="#1CB358"/>
</svg>
